REM DIRINDEX 1\6,1\2\7,1\2\8,1\2\9,1\3\10,1\3\11,1\4\12,1\4\13,1\4\14,1\5\15,1\5\16,1\5\17
REM DIRNAME folder01,folder02,folder03,folder04,folder05,folder06,folder07,folder08,folder09,folder10,folder11,folder12,folder13,folder14,folder15,folder16,folder17
TITLE ""
FILE "3Q_t_0158-0173.mp3" MP3
  TRACK 01 AUDIO
    TITLE "10:cjc041_1920"
    INDEX 01 00:00:00
  TRACK 02 AUDIO
    TITLE "0:"
    INDEX 01 00:00:74
  TRACK 03 AUDIO
    TITLE "11:cjc041_1921"
    INDEX 01 00:01:56
  TRACK 04 AUDIO
    TITLE "0:"
    INDEX 01 00:03:64
  TRACK 05 AUDIO
    TITLE "10:cjc041_1922"
    INDEX 01 00:04:42
  TRACK 06 AUDIO
    TITLE "0:"
    INDEX 01 00:05:61
  TRACK 07 AUDIO
    TITLE "11:cjc041_1923"
    INDEX 01 00:06:39
  TRACK 08 AUDIO
    TITLE "0:"
    INDEX 01 00:08:09
  TRACK 09 AUDIO
    TITLE "10:cjc041_1924"
    INDEX 01 00:08:64
  TRACK 10 AUDIO
    TITLE "0:"
    INDEX 01 00:09:69
  TRACK 11 AUDIO
    TITLE "11:cjc041_1925"
    INDEX 01 00:10:47
  TRACK 12 AUDIO
    TITLE "0:"
    INDEX 01 00:11:48
  TRACK 13 AUDIO
    TITLE "10:cjc041_1926"
    INDEX 01 00:12:26
  TRACK 14 AUDIO
    TITLE "0:"
    INDEX 01 00:13:35
  TRACK 15 AUDIO
    TITLE "11:cjc041_1927"
    INDEX 01 00:14:13
  TRACK 16 AUDIO
    TITLE "0:"
    INDEX 01 00:16:49
  TRACK 17 AUDIO
    TITLE "10:cjc041_1928"
    INDEX 01 00:17:25
  TRACK 18 AUDIO
    TITLE "0:"
    INDEX 01 00:18:39
  TRACK 19 AUDIO
    TITLE "11:cjc041_1929"
    INDEX 01 00:19:18
  TRACK 20 AUDIO
    TITLE "0:"
    INDEX 01 00:20:39
  TRACK 21 AUDIO
    TITLE "10:cjc041_1930"
    INDEX 01 00:21:15
  TRACK 22 AUDIO
    TITLE "0:"
    INDEX 01 00:22:27
  TRACK 23 AUDIO
    TITLE "11:cjc041_1931"
    INDEX 01 00:23:10
  TRACK 24 AUDIO
    TITLE "0:"
    INDEX 01 00:25:23
  TRACK 25 AUDIO
    TITLE "10:cjc041_1932"
    INDEX 01 00:26:05
  TRACK 26 AUDIO
    TITLE "0:"
    INDEX 01 00:27:18
  TRACK 27 AUDIO
    TITLE "11:cjc041_1933"
    INDEX 01 00:27:71
  TRACK 28 AUDIO
    TITLE "0:"
    INDEX 01 00:29:03
  TRACK 29 AUDIO
    TITLE "10:cjc041_1934"
    INDEX 01 00:29:64
  TRACK 30 AUDIO
    TITLE "0:"
    INDEX 01 00:31:08
  TRACK 31 AUDIO
    TITLE "11:cjc041_1935"
    INDEX 01 00:31:59
  TRACK 32 AUDIO
    TITLE "0:"
    INDEX 01 00:32:68
  TRACK 33 AUDIO
    TITLE "10:cjc041_1936"
    INDEX 01 00:33:52
  TRACK 34 AUDIO
    TITLE "0:"
    INDEX 01 00:34:69
  TRACK 35 AUDIO
    TITLE "11:cjc041_1937"
    INDEX 01 00:35:45
  TRACK 36 AUDIO
    TITLE "0:"
    INDEX 01 00:37:42
  TRACK 37 AUDIO
    TITLE "10:cjc041_1938"
    INDEX 01 00:38:20
  TRACK 38 AUDIO
    TITLE "0:"
    INDEX 01 00:39:41
  TRACK 39 AUDIO
    TITLE "11:cjc041_1939"
    INDEX 01 00:40:19
  TRACK 40 AUDIO
    TITLE "0:"
    INDEX 01 00:41:12
  TRACK 41 AUDIO
    TITLE "10:cjc041_1940"
    INDEX 01 00:41:69
  TRACK 42 AUDIO
    TITLE "0:"
    INDEX 01 00:43:03
  TRACK 43 AUDIO
    TITLE "11:cjc041_1941"
    INDEX 01 00:43:64
  TRACK 44 AUDIO
    TITLE "0:"
    INDEX 01 00:44:54
  TRACK 45 AUDIO
    TITLE "10:cjc041_1942"
    INDEX 01 00:45:37
  TRACK 46 AUDIO
    TITLE "0:"
    INDEX 01 00:46:47
  TRACK 47 AUDIO
    TITLE "11:cjc041_1943"
    INDEX 01 00:47:30
  TRACK 48 AUDIO
    TITLE "0:"
    INDEX 01 00:48:12
  TRACK 49 AUDIO
    TITLE "10:cjc041_1944"
    INDEX 01 00:48:73
  TRACK 50 AUDIO
    TITLE "0:"
    INDEX 01 00:50:27
  TRACK 51 AUDIO
    TITLE "11:cjc041_1945"
    INDEX 01 00:50:74
  TRACK 52 AUDIO
    TITLE "0:"
    INDEX 01 00:52:26
  TRACK 53 AUDIO
    TITLE "10:cjc041_1946"
    INDEX 01 00:53:04
  TRACK 54 AUDIO
    TITLE "0:"
    INDEX 01 00:54:23
  TRACK 55 AUDIO
    TITLE "11:cjc041_1947"
    INDEX 01 00:55:06
  TRACK 56 AUDIO
    TITLE "0:"
    INDEX 01 00:56:08
  TRACK 57 AUDIO
    TITLE "10:cjc041_1948"
    INDEX 01 00:56:63
  TRACK 58 AUDIO
    TITLE "0:"
    INDEX 01 00:57:72
  TRACK 59 AUDIO
    TITLE "11:cjc041_1949"
    INDEX 01 00:58:52
  TRACK 60 AUDIO
    TITLE "0:"
    INDEX 01 00:59:41
  TRACK 61 AUDIO
    TITLE "10:cjc041_1950"
    INDEX 01 01:00:21
  TRACK 62 AUDIO
    TITLE "0:"
    INDEX 01 01:01:27
  TRACK 63 AUDIO
    TITLE "11:cjc041_1951"
    INDEX 01 01:02:03
  TRACK 64 AUDIO
    TITLE "0:"
    INDEX 01 01:03:18
